<svg width="24" height="508" viewBox="0 0 24 508" fill="none" xmlns="http://www.w3.org/2000/svg">
<path d="M12 448C14.2091 448 16 449.791 16 452C16 454.209 14.2091 456 12 456C9.79086 456 8 454.209 8 452C8 449.791 9.79086 448 12 448ZM13 450C12.4477 450 12 450.448 12 451C12 451.552 12.4477 452 13 452C13.5523 452 14 451.552 14 451C14 450.448 13.5523 450 13 450Z" fill="black"/>
<path d="M12.0002 444.5C14.8193 444.5 17.2891 445.671 19.1779 447.033C21.0665 448.395 22.4889 450.029 23.2482 451.168C23.5895 451.68 23.584 452.349 23.2336 452.854C22.4702 453.956 21.0442 455.53 19.1555 456.841C17.2649 458.153 14.8031 459.273 12.0002 459.273C9.19725 459.273 6.73543 458.153 4.8449 456.841C3.19226 455.694 1.89425 454.345 1.08416 453.288L0.766778 452.854C0.416366 452.349 0.410812 451.68 0.75213 451.168L1.06756 450.719C1.87439 449.624 3.17008 448.225 4.82244 447.033C6.71129 445.671 9.18105 444.5 12.0002 444.5ZM12.0002 447.5C10.0193 447.5 8.15515 448.329 6.57733 449.467C5.45403 450.277 4.53488 451.204 3.8908 451.98C4.53168 452.721 5.44187 453.604 6.55486 454.376C8.131 455.47 10.0031 456.273 12.0002 456.273C13.9973 456.273 15.8694 455.47 17.4455 454.376C18.5582 453.604 19.4677 452.721 20.1086 451.98C19.4645 451.204 18.5461 450.277 17.423 449.467C15.8452 448.329 13.9811 447.5 12.0002 447.5Z" fill="black"/>
<path d="M20.8608 495.025C21.3546 494.447 22.2164 494.325 22.8549 494.767C23.4932 495.209 23.6823 496.059 23.3149 496.724L23.2338 496.855C22.4705 497.957 21.0445 499.531 19.1557 500.841C17.2652 502.153 14.8034 503.274 12.0004 503.274C9.19751 503.274 6.73569 502.153 4.84516 500.841C3.19252 499.694 1.8945 498.346 1.08442 497.288L0.767035 496.855L0.68598 496.724C0.318592 496.059 0.507636 495.209 1.14594 494.767C1.78447 494.325 2.64624 494.447 3.14008 495.025L3.23383 495.146L3.47504 495.476C4.10315 496.293 5.17453 497.418 6.55512 498.376C8.13126 499.47 10.0034 500.274 12.0004 500.274C13.9975 500.274 15.8696 499.47 17.4457 498.376C19.0234 497.281 20.1971 495.969 20.767 495.146L20.8608 495.025Z" fill="black"/>
<ellipse cx="12" cy="503.5" rx="1" ry="1.5" fill="black"/>
<ellipse cx="2.61603" cy="498.799" rx="1" ry="1.5" transform="rotate(30 2.61603 498.799)" fill="black"/>
<ellipse cx="6.35504" cy="501.708" rx="1" ry="1.5" transform="rotate(15 6.35504 501.708)" fill="black"/>
<ellipse cx="17.3542" cy="501.708" rx="1" ry="1.5" transform="rotate(-15 17.3542 501.708)" fill="black"/>
<ellipse cx="21.616" cy="498.799" rx="1" ry="1.5" transform="rotate(-30 21.616 498.799)" fill="black"/>
<path d="M9 61H15" stroke="#202020" stroke-width="1.5" stroke-linecap="round"/>
<path d="M8 56H16" stroke="#202020" stroke-width="1.5" stroke-linecap="round"/>
<path d="M6 51H18" stroke="#202020" stroke-width="1.5" stroke-linecap="round"/>
<path d="M16 15.0498L11.5 20L7 15.0498L8.15039 14L11.5 17.6504L14.8496 14L16 15.0498ZM16 8.9502L14.8496 10L11.5 6.35059L8.15039 10L7 8.9502L11.5 4L16 8.9502Z" fill="#202020"/>
<rect x="4.5" y="224.5" width="15" height="15" stroke="#202020"/>
<rect x="11" y="228" width="2" height="8" fill="#202020"/>
<rect x="16" y="231" width="2" height="8" transform="rotate(90 16 231)" fill="#202020"/>
<rect x="4.5" y="268.5" width="15" height="15" stroke="#202020"/>
<rect x="16" y="275" width="2" height="8" transform="rotate(90 16 275)" fill="#202020"/>
<path d="M20 106.366L15.7642 102.074C17.3304 99.5284 17.0456 96.1461 14.9099 93.9276C13.6641 92.6546 12.0267 92 10.3893 92C8.75195 92 7.11457 92.6546 5.86874 93.9276C3.37709 96.4734 3.37709 100.619 5.86874 103.165C7.11457 104.438 8.75195 105.093 10.3893 105.093C11.4216 105.093 12.4538 104.838 13.4149 104.329L17.7219 108.73L20 106.366ZM6.61624 102.402C5.61958 101.383 5.05006 100.001 5.05006 98.5464C5.05006 97.0916 5.61958 95.746 6.61624 94.6913C7.6129 93.673 8.96552 93.0911 10.3893 93.0911C11.8131 93.0911 13.1301 93.673 14.1624 94.6913C15.1591 95.7096 15.7286 97.0916 15.7286 98.5464C15.7286 100.001 15.1591 101.347 14.1624 102.402C13.1657 103.42 11.8131 104.002 10.3893 104.002C8.96552 104.002 7.6129 103.42 6.61624 102.402Z" fill="#202020"/>
<path d="M17 373V374H7V373H17ZM18 372V360H6V372C6 372.552 6.44772 373 7 373V374L6.7959 373.989C5.85435 373.894 5.1062 373.146 5.01074 372.204L5 372V359H19V372L18.9893 372.204C18.8938 373.146 18.1457 373.894 17.2041 373.989L17 374V373C17.5523 373 18 372.552 18 372Z" fill="black"/>
<rect x="9" y="363" width="1" height="7" fill="#202020"/>
<rect x="14" y="363" width="1" height="7" fill="#202020"/>
<path d="M11 356V357H13V356H11ZM14 357H20V358H4V357H10V355H14V357Z" fill="black"/>
<path d="M17.8363 135L21.0031 138.167L8.33594 150.834L5.16915 147.667L17.8363 135ZM8.33663 149.567L18.4695 139.434L16.5692 137.534L6.43628 147.667L8.33663 149.567Z" fill="#202020"/>
<path d="M3.58461 152.417L4.58842 148.67L7.33087 151.413L3.58461 152.417Z" fill="#202020"/>
<path d="M17.8363 179L21.0031 182.167L8.33594 194.834L5.16915 191.667L17.8363 179ZM8.33663 193.567L18.4695 183.434L16.5692 181.534L6.43628 191.667L8.33663 193.567Z" fill="#202020"/>
<path d="M3.58461 196.417L4.58842 192.67L7.33087 195.413L3.58461 196.417Z" fill="#202020"/>
<rect x="4.24609" y="180.307" width="8.83594" height="0.800781" fill="#202020"/>
<rect x="4.24609" y="183.195" width="6.99609" height="0.800781" fill="#202020"/>
<rect x="4.24609" y="186.084" width="4.08594" height="0.800781" fill="#202020"/>
<rect x="1" y="326" width="22" height="2" fill="#003045"/>
<rect x="1" y="319" width="22" height="2" fill="#003045"/>
<rect x="1" y="312" width="22" height="2" fill="#003045"/>
<path d="M13 396C19.0751 396 24 400.925 24 407V409C24 415.075 19.0751 420 13 420H0V396H13ZM12 399C7.02944 399 3 403.029 3 408C3 412.971 7.02944 417 12 417C16.9706 417 21 412.971 21 408C21 403.029 16.9706 399 12 399Z" fill="#3660B3"/>
</svg>
