<svg xmlns="http://www.w3.org/2000/svg" width="20" height="20" viewBox="0 0 20 20" fill="none">
<g transform="translate(-80 -440.2197)">
  <circle cx="88" cy="455.22" r="1" fill="currentColor" />
  <path d="M88 446.22C88.5522 446.22 88.9999 446.916 89 447.775C89 447.949 88.98 448.116 88.9461 448.272L88.5 452.442C88.5 452.871 88.2761 453.22 88 453.22C87.7239 453.22 87.5 452.871 87.5 452.442L87.0532 448.272C87.0194 448.116 87 447.949 87 447.775C87.0001 446.916 87.4478 446.22 88 446.22Z" fill="currentColor" />
  <path fill-rule="evenodd" clip-rule="evenodd" d="M87.0164 442.791C87.4533 442.029 88.5458 442.029 88.9826 442.791L96.8465 456.505C97.2829 457.267 96.7368 458.22 95.8634 458.22H80.1368C79.2631 458.22 78.7169 457.267 79.1537 456.505L87.0164 442.791ZM88.2456 443.791C88.1364 443.601 87.8638 443.601 87.7546 443.791L80.3817 456.648C80.2729 456.839 80.4096 457.077 80.6278 457.077H95.3713C95.5896 457.077 95.7264 456.839 95.6173 456.648L88.2456 443.791Z" fill="currentColor" />
</g>
</svg>