<svg xmlns="http://www.w3.org/2000/svg" width="20" height="20" viewBox="0 0 20 20" fill="none">
<g transform="translate(-38 -440.2197)">
  <path fill-rule="evenodd" clip-rule="evenodd" d="M47.0164 442.791C47.4533 442.029 48.5458 442.029 48.9826 442.791L56.8465 456.505C57.2829 457.267 56.7368 458.22 55.8634 458.22H40.1368C39.2631 458.22 38.7169 457.267 39.1537 456.505L47.0164 442.791Z" fill="#E07000" />
  <circle cx="48" cy="455.22" r="1" fill="white" />
  <path d="M48 446.22C48.5522 446.22 48.9999 446.916 49 447.775C49 447.949 48.98 448.116 48.9461 448.272L48.5 452.442C48.5 452.871 48.2761 453.22 48 453.22C47.7239 453.22 47.5 452.871 47.5 452.442L47.0532 448.272C47.0194 448.116 47 447.949 47 447.775C47.0001 446.916 47.4478 446.22 48 446.22Z" fill="white" />
</g>
</svg>