<svg xmlns="http://www.w3.org/2000/svg" width="20" height="20" viewBox="0 0 20 20" fill="none">
<g transform="translate(-80 -40.2197)">
  <path fill-rule="evenodd" clip-rule="evenodd" d="M95 58.2197H81V43.2197H95V58.2197ZM82.5 46.2197V56.7197H93.5V46.2197H82.5Z" fill="currentColor" />
  <path d="M82.9994 42.2197H84.9994V43.2197H82.9994V42.2197Z" fill="currentColor" />
  <path d="M90.9994 42.2197H92.9994V43.2197H90.9994V42.2197Z" fill="currentColor" />
  <rect x="84" y="48.2197" width="2" height="1" fill="currentColor" />
  <rect x="87" y="48.2197" width="2" height="1" fill="currentColor" />
  <rect x="87" y="51.2197" width="2" height="1" fill="currentColor" />
  <rect x="87" y="54.2197" width="2" height="1" fill="currentColor" />
  <rect x="84" y="51.2197" width="2" height="1" fill="currentColor" />
  <rect x="84" y="54.2197" width="2" height="1" fill="currentColor" />
  <rect x="90" y="48.2197" width="2" height="1" fill="currentColor" />
  <rect x="90" y="51.2197" width="2" height="1" fill="currentColor" />
</g>
</svg>