<svg xmlns="http://www.w3.org/2000/svg" width="20" height="20" viewBox="0 0 20 20" fill="none">
<g transform="translate(-80 -480.2197)">
  <path d="M88 482.22C92.4183 482.22 96 485.801 96 490.22C96 494.638 92.4183 498.22 88 498.22C83.5817 498.22 80 494.638 80 490.22C80 485.801 83.5817 482.22 88 482.22ZM84.0293 495.983C85.1577 496.762 86.5251 497.22 88 497.22C91.866 497.22 95 494.086 95 490.22C95 488.745 94.5425 487.377 93.7637 486.249L84.0293 495.983ZM88 483.22C84.134 483.22 81 486.354 81 490.22C81 491.889 81.5853 493.421 82.5605 494.624L92.4043 484.78C91.2013 483.805 89.6693 483.22 88 483.22Z" fill="currentColor" />
</g>
</svg>