<svg width="20" height="20" viewBox="0 0 20 20" fill="none" xmlns="http://www.w3.org/2000/svg">
  <path d="M14.168 17.5007V18.334H5.83464V17.5007H14.168ZM15.0013 16.6673V6.66732H5.0013V16.6673C5.0013 17.1276 5.3744 17.5007 5.83464 17.5007V18.334L5.66455 18.325C4.87992 18.2455 4.25647 17.622 4.17692 16.8374L4.16797 16.6673V5.83398H15.8346V16.6673L15.8257 16.8374C15.7461 17.622 15.1227 18.2455 14.3381 18.325L14.168 18.334V17.5007C14.6282 17.5007 15.0013 17.1276 15.0013 16.6673Z" fill="currentColor"/>
  <rect x="7.5" y="9.16602" width="0.833333" height="5.83333" fill="currentColor"/>
  <rect x="11.668" y="9.16602" width="0.833333" height="5.83333" fill="currentColor"/>
  <path d="M9.16504 3.33301V4.16699H10.832V3.33301H9.16504ZM11.665 4.16699H16.665V5H3.33203V4.16699H8.33203V2.5H11.665V4.16699Z" fill="currentColor"/>
</svg>
