<svg xmlns="http://www.w3.org/2000/svg" width="20" height="20" viewBox="0 0 20 20" fill="none">
<g transform="translate(-80 -720.2197)">
  <path d="M93.835 736.886L93.8262 737.057C93.7464 737.841 93.1224 738.464 92.3379 738.544L92.168 738.553H83.835L83.665 738.544C82.8806 738.464 82.2565 737.841 82.1768 737.057L82.168 736.886V726.053H93.835V736.886ZM85.0186 736.072H85.835V728.535H85.0186V736.072ZM87.6387 728.534V736.071H88.4551V728.534H87.6387ZM90.2539 736.071H91.0703V728.534H90.2539V736.071Z" fill="currentColor" />
  <path d="M87.165 723.553V723.789H88.832V723.553H87.165ZM89.665 723.789H94.665V725.22H81.332V723.789H86.332V722.72H89.665V723.789Z" fill="currentColor" />
</g>
</svg>