<svg width="128" height="128" viewBox="0 0 128 128" fill="none" xmlns="http://www.w3.org/2000/svg">
<rect width="128" height="128" rx="7" fill="white"/>
<path d="M63.9443 46.0779L17 68.0042V88.1594L64 66.1771L111 88.1594V68.0042L64.0558 46.0779H63.9443ZM17 119H111V100.783H17V119ZM60.6548 14.2403C49.3369 18.6145 38.2977 19.445 27.8719 16.5658C22.7983 15.1816 19.0629 13.1883 17 11.9702V32.7891C23.0214 35.1148 30.994 37.108 40.4163 37.108C49.8386 37.108 57.4769 35.6684 67.3451 31.8479C78.6631 27.4737 89.7022 26.6431 100.128 29.5224C105.201 30.9066 108.937 32.8999 111 34.118V13.299C99.8497 9.03563 82.2312 5.87952 60.6548 14.2403Z" fill="#003045"/>
</svg>
