<svg width="24" height="28" viewBox="0 0 24 28" fill="none" xmlns="http://www.w3.org/2000/svg">
<ellipse cx="12.0008" cy="20.0008" rx="1.2" ry="1.2" fill="black"/>
<path d="M12.0008 9.19922C12.6635 9.19922 13.2007 10.0348 13.2008 11.0656C13.2008 11.2742 13.1767 11.4744 13.1362 11.6617L12.6008 16.6656C12.6008 17.181 12.3322 17.5992 12.0008 17.5992C11.6694 17.5992 11.4008 17.181 11.4008 16.6656L10.8646 11.6617C10.8241 11.4745 10.8008 11.2741 10.8008 11.0656C10.8009 10.0348 11.3381 9.19922 12.0008 9.19922Z" fill="black"/>
<path fill-rule="evenodd" clip-rule="evenodd" d="M10.833 5.08415C11.3507 4.16987 12.6456 4.16987 13.1633 5.08415L22.4834 21.5413C23.0007 22.4554 22.3534 23.5982 21.3182 23.5984H2.67934C1.64389 23.5984 0.996537 22.4556 1.51416 21.5413L10.833 5.08415ZM12.2898 6.28415C12.1603 6.05562 11.8373 6.0557 11.7078 6.28415L2.96965 21.7127C2.84068 21.9412 3.0027 22.2268 3.26127 22.227H20.735C20.9938 22.227 21.1559 21.9413 21.0266 21.7127L12.2898 6.28415Z" fill="black"/>
</svg>
