<svg xmlns="http://www.w3.org/2000/svg" width="20" height="20" viewBox="0 0 20 20" fill="none">
<g transform="translate(-80 -880.2197)">
  <path d="M87.9795 892.093H87.6992C87.6901 891.587 87.7129 891.209 87.7676 890.958C87.8268 890.707 87.9749 890.363 88.2119 889.926C88.4535 889.484 88.6107 889.131 88.6836 888.866C88.7611 888.597 88.7998 888.267 88.7998 887.875C88.7998 887.269 88.6813 886.822 88.4443 886.535C88.2074 886.248 87.9271 886.104 87.6035 886.104C87.3574 886.104 87.1501 886.171 86.9814 886.303C86.8538 886.403 86.79 886.508 86.79 886.617C86.79 886.69 86.8333 886.804 86.9199 886.959C87.1159 887.31 87.2139 887.608 87.2139 887.854C87.2139 888.078 87.1364 888.265 86.9814 888.415C86.8311 888.565 86.6419 888.641 86.4141 888.641C86.1589 888.641 85.9447 888.552 85.7715 888.374C85.5983 888.192 85.5117 887.952 85.5117 887.656C85.5117 887.118 85.7441 886.647 86.209 886.241C86.6738 885.836 87.3232 885.633 88.1572 885.633C89.0413 885.633 89.7135 885.845 90.1738 886.269C90.6387 886.688 90.8711 887.196 90.8711 887.793C90.8711 888.226 90.7526 888.627 90.5156 888.996C90.2786 889.361 89.8206 889.766 89.1416 890.213C88.6859 890.514 88.3851 890.783 88.2393 891.02C88.098 891.252 88.0114 891.61 87.9795 892.093ZM87.9043 893.091C88.2096 893.091 88.4694 893.198 88.6836 893.412C88.8978 893.626 89.0049 893.886 89.0049 894.191C89.0049 894.497 88.8978 894.759 88.6836 894.978C88.4694 895.192 88.2096 895.299 87.9043 895.299C87.599 895.299 87.3392 895.192 87.125 894.978C86.9108 894.759 86.8037 894.497 86.8037 894.191C86.8037 893.886 86.9108 893.626 87.125 893.412C87.3392 893.198 87.599 893.091 87.9043 893.091Z" fill="currentColor" />
  <path d="M88 882.22C92.4183 882.22 96 885.801 96 890.22C96 894.638 92.4183 898.22 88 898.22C83.5817 898.22 80 894.638 80 890.22C80 885.801 83.5817 882.22 88 882.22ZM88 883.22C84.134 883.22 81 886.354 81 890.22C81 894.086 84.134 897.22 88 897.22C91.866 897.22 95 894.086 95 890.22C95 886.354 91.866 883.22 88 883.22Z" fill="currentColor" />
</g>
</svg>