<svg xmlns="http://www.w3.org/2000/svg" width="24" height="24" viewBox="0 0 24 24" fill="none">
<g transform="translate(0 -484)">
  <path xmlns="http://www.w3.org/2000/svg" d="M20.8608 495.025C21.3546 494.447 22.2164 494.325 22.8549 494.767C23.4932 495.209 23.6823 496.059 23.3149 496.724L23.2338 496.855C22.4705 497.957 21.0445 499.531 19.1557 500.841C17.2652 502.153 14.8034 503.274 12.0004 503.274C9.19751 503.274 6.73569 502.153 4.84516 500.841C3.19252 499.694 1.8945 498.346 1.08442 497.288L0.767035 496.855L0.68598 496.724C0.318592 496.059 0.507636 495.209 1.14594 494.767C1.78447 494.325 2.64624 494.447 3.14008 495.025L3.23383 495.146L3.47504 495.476C4.10315 496.293 5.17453 497.418 6.55512 498.376C8.13126 499.47 10.0034 500.274 12.0004 500.274C13.9975 500.274 15.8696 499.47 17.4457 498.376C19.0234 497.281 20.1971 495.969 20.767 495.146L20.8608 495.025Z" fill="currentColor" />

  <ellipse xmlns="http://www.w3.org/2000/svg" cx="12" cy="503.5" rx="1" ry="1.5" fill="currentColor" />

  <ellipse xmlns="http://www.w3.org/2000/svg" cx="2.61603" cy="498.799" rx="1" ry="1.5" transform="rotate(30 2.61603 498.799)" fill="currentColor" />

  <ellipse xmlns="http://www.w3.org/2000/svg" cx="6.35504" cy="501.708" rx="1" ry="1.5" transform="rotate(15 6.35504 501.708)" fill="currentColor" />

  <ellipse xmlns="http://www.w3.org/2000/svg" cx="17.3542" cy="501.708" rx="1" ry="1.5" transform="rotate(-15 17.3542 501.708)" fill="currentColor" />

  <ellipse xmlns="http://www.w3.org/2000/svg" cx="21.616" cy="498.799" rx="1" ry="1.5" transform="rotate(-30 21.616 498.799)" fill="currentColor" />

</g>
</svg>