<svg width="24" height="24" viewBox="0 0 24 24" fill="none" xmlns="http://www.w3.org/2000/svg">
<path d="M11.9984 2.39844C17.3004 2.39844 21.5984 6.6965 21.5984 11.9984C21.5984 17.3004 17.3004 21.5984 11.9984 21.5984C6.6965 21.5984 2.39844 17.3004 2.39844 11.9984C2.39844 6.6965 6.6965 2.39844 11.9984 2.39844ZM11.9984 3.59844C7.35925 3.59844 3.59844 7.35925 3.59844 11.9984C3.59844 16.6376 7.35925 20.3984 11.9984 20.3984C16.6376 20.3984 20.3984 16.6376 20.3984 11.9984C20.3984 7.35925 16.6376 3.59844 11.9984 3.59844Z" fill="black"/>
<ellipse cx="12.0203" cy="8.37578" rx="1.2" ry="1.2" fill="black"/>
<path d="M13.1563 11.1562V17.5934H13.1586C13.3618 17.5934 13.5266 17.7583 13.5266 17.9613C13.5264 18.1642 13.3617 18.3281 13.1586 18.3281L13.1563 18.327L11.0984 18.3281V18.3258H10.7551C10.7469 18.3263 10.7388 18.3281 10.7305 18.3281C10.5274 18.3281 10.3627 18.1642 10.3625 17.9613C10.3625 17.7591 10.526 17.5946 10.7281 17.5934H10.9133C10.9133 17.5934 10.9906 17.5875 11.0609 17.4938C11.1313 17.4 11.0984 17.2172 11.0984 17.2172V12.9C11.0984 12.9 11.1266 12.6293 11.0047 12.4781C10.8828 12.327 10.7094 12.327 10.7094 12.327H10.3203C9.9969 12.327 9.73469 12.0652 9.73438 11.7422C9.73438 11.4189 9.99671 11.1562 10.3203 11.1562H13.1563Z" fill="black"/>
</svg>
