<svg xmlns="http://www.w3.org/2000/svg" width="20" height="20" viewBox="0 0 20 20" fill="none">
<g transform="translate(-80 -520.2197)">
  <path d="M88 522.22C92.4183 522.22 96 525.801 96 530.22C96 534.638 92.4183 538.22 88 538.22C83.5817 538.22 80 534.638 80 530.22C80 525.801 83.5817 522.22 88 522.22ZM88 523.22C84.134 523.22 81 526.354 81 530.22C81 534.086 84.134 537.22 88 537.22C91.866 537.22 95 534.086 95 530.22C95 526.354 91.866 523.22 88 523.22Z" fill="currentColor" />
  <circle cx="88.0156" cy="527.199" r="1" fill="currentColor" />
  <path d="M88.9648 529.517V534.881H88.9668C89.1361 534.881 89.2734 535.018 89.2734 535.188C89.2733 535.357 89.136 535.493 88.9668 535.493L88.9648 535.492L87.25 535.493V535.491H86.9639C86.9571 535.492 86.9503 535.493 86.9434 535.493C86.7741 535.493 86.6369 535.357 86.6367 535.188C86.6367 535.019 86.773 534.882 86.9414 534.881H87.0957C87.0957 534.881 87.1602 534.876 87.2188 534.798C87.2773 534.72 87.25 534.567 87.25 534.567V530.97C87.25 530.97 87.2734 530.744 87.1719 530.618C87.0703 530.492 86.9258 530.492 86.9258 530.492H86.6016C86.3321 530.492 86.1135 530.274 86.1133 530.005C86.1133 529.735 86.3319 529.517 86.6016 529.517H88.9648Z" fill="currentColor" />
</g>
</svg>