<svg xmlns="http://www.w3.org/2000/svg" width="20" height="20" viewBox="0 0 20 20" fill="none">
<g transform="translate(-80 -0.2197)">
  <g>
<path d="M88 16.2197C86.3333 16.2197 84.9062 15.6294 83.7188 14.4489C82.5312 13.2683 81.9583 11.8169 82 10.0947L80.8125 11.2822L79.75 10.2197L82.75 7.21973L85.75 10.2197L84.6875 11.2822L83.5 10.0947C83.4722 11.4003 83.9028 12.4975 84.7917 13.3864C85.6806 14.2753 86.75 14.7197 88 14.7197C88.3056 14.7197 88.5972 14.6919 88.875 14.6364C89.1528 14.5808 89.4236 14.4975 89.6875 14.3864L90.7917 15.4906C90.375 15.7128 89.934 15.8899 89.4688 16.0218C89.0035 16.1538 88.5139 16.2197 88 16.2197ZM93.25 13.2197L90.25 10.2197L91.3125 9.15723L92.5 10.3447C92.5278 9.03917 92.0972 7.94195 91.2083 7.05306C90.3194 6.16417 89.25 5.71973 88 5.71973C87.7083 5.71973 87.4201 5.7475 87.1354 5.80306C86.8507 5.85862 86.5764 5.94195 86.3125 6.05306L85.2083 4.94889C85.625 4.72667 86.0694 4.54959 86.5417 4.41764C87.0139 4.2857 87.5 4.21973 88 4.21973C89.6806 4.21973 91.1111 4.81 92.2917 5.99056C93.4722 7.17112 94.0417 8.6225 94 10.3447L95.1875 9.15723L96.25 10.2197L93.25 13.2197Z" fill="currentColor" />
</g>
</g>
</svg>