<svg xmlns="http://www.w3.org/2000/svg" width="24" height="24" viewBox="0 0 24 24" fill="none">
<g transform="translate(0 -88)">
  <path xmlns="http://www.w3.org/2000/svg" d="M20 106.366L15.7642 102.074C17.3304 99.5284 17.0456 96.1461 14.9099 93.9276C13.6641 92.6546 12.0267 92 10.3893 92C8.75195 92 7.11457 92.6546 5.86874 93.9276C3.37709 96.4734 3.37709 100.619 5.86874 103.165C7.11457 104.438 8.75195 105.093 10.3893 105.093C11.4216 105.093 12.4538 104.838 13.4149 104.329L17.7219 108.73L20 106.366ZM6.61624 102.402C5.61958 101.383 5.05006 100.001 5.05006 98.5464C5.05006 97.0916 5.61958 95.746 6.61624 94.6913C7.6129 93.673 8.96552 93.0911 10.3893 93.0911C11.8131 93.0911 13.1301 93.673 14.1624 94.6913C15.1591 95.7096 15.7286 97.0916 15.7286 98.5464C15.7286 100.001 15.1591 101.347 14.1624 102.402C13.1657 103.42 11.8131 104.002 10.3893 104.002C8.96552 104.002 7.6129 103.42 6.61624 102.402Z" fill="currentColor" />

</g>
</svg>