<svg width="24" height="24" viewBox="0 0 24 24" fill="none" xmlns="http://www.w3.org/2000/svg">
  <path d="M20 18.3657L15.7642 14.0742C17.3304 11.5284 17.0456 8.14606 14.9099 5.92755C13.6641 4.65464 12.0267 4 10.3893 4C8.75195 4 7.11457 4.65464 5.86874 5.92755C3.37709 8.47338 3.37709 12.6194 5.86874 15.1653C7.11457 16.4382 8.75195 17.0928 10.3893 17.0928C11.4216 17.0928 12.4538 16.8382 13.4149 16.3291L17.7219 20.7297L20 18.3657ZM6.61624 14.4015C5.61958 13.3832 5.05006 12.0012 5.05006 10.5464C5.05006 9.09165 5.61958 7.746 6.61624 6.6913C7.6129 5.67297 8.96552 5.09107 10.3893 5.09107C11.8131 5.09107 13.1301 5.67297 14.1624 6.6913C15.1591 7.70963 15.7286 9.09165 15.7286 10.5464C15.7286 12.0012 15.1591 13.3468 14.1624 14.4015C13.1657 15.4198 11.8131 16.0017 10.3893 16.0017C8.96552 16.0017 7.6129 15.4198 6.61624 14.4015Z" fill="currentColor"/>
</svg>
