<svg xmlns="http://www.w3.org/2000/svg" width="24" height="24" viewBox="0 0 24 24" fill="none">
<g transform="translate(0 -440)">
  <path xmlns="http://www.w3.org/2000/svg" d="M12 448C14.2091 448 16 449.791 16 452C16 454.209 14.2091 456 12 456C9.79086 456 8 454.209 8 452C8 449.791 9.79086 448 12 448ZM13 450C12.4477 450 12 450.448 12 451C12 451.552 12.4477 452 13 452C13.5523 452 14 451.552 14 451C14 450.448 13.5523 450 13 450Z" fill="currentColor" />

  <path xmlns="http://www.w3.org/2000/svg" d="M12.0002 444.5C14.8193 444.5 17.2891 445.671 19.1779 447.033C21.0665 448.395 22.4889 450.029 23.2482 451.168C23.5895 451.68 23.584 452.349 23.2336 452.854C22.4702 453.956 21.0442 455.53 19.1555 456.841C17.2649 458.153 14.8031 459.273 12.0002 459.273C9.19725 459.273 6.73543 458.153 4.8449 456.841C3.19226 455.694 1.89425 454.345 1.08416 453.288L0.766778 452.854C0.416366 452.349 0.410812 451.68 0.75213 451.168L1.06756 450.719C1.87439 449.624 3.17008 448.225 4.82244 447.033C6.71129 445.671 9.18105 444.5 12.0002 444.5ZM12.0002 447.5C10.0193 447.5 8.15515 448.329 6.57733 449.467C5.45403 450.277 4.53488 451.204 3.8908 451.98C4.53168 452.721 5.44187 453.604 6.55486 454.376C8.131 455.47 10.0031 456.273 12.0002 456.273C13.9973 456.273 15.8694 455.47 17.4455 454.376C18.5582 453.604 19.4677 452.721 20.1086 451.98C19.4645 451.204 18.5461 450.277 17.423 449.467C15.8452 448.329 13.9811 447.5 12.0002 447.5Z" fill="currentColor" />

</g>
</svg>