<svg xmlns="http://www.w3.org/2000/svg" width="20" height="20" viewBox="0 0 20 20" fill="none">
<g transform="translate(-80 -400.2197)">
  <path d="M83.3102 410.136L84.4912 408.894L87.1738 411.902L92.0838 406.546L93.4688 407.81L87.1738 414.412L83.3102 410.136Z" fill="currentColor" />
  <path d="M88 402.22C92.4183 402.22 96 405.801 96 410.22C96 414.638 92.4183 418.22 88 418.22C83.5817 418.22 80 414.638 80 410.22C80 405.801 83.5817 402.22 88 402.22ZM88 403.22C84.134 403.22 81 406.354 81 410.22C81 414.086 84.134 417.22 88 417.22C91.866 417.22 95 414.086 95 410.22C95 406.354 91.866 403.22 88 403.22Z" fill="currentColor" />
</g>
</svg>