<svg width="24" height="24" viewBox="0 0 24 24" fill="none" xmlns="http://www.w3.org/2000/svg">
<path d="M6.37223 11.899L7.78938 10.4086L11.0086 14.0181L16.9006 7.59082L18.5625 9.10819L11.0086 17.0301L6.37223 11.899Z" fill="#202020"/>
<path d="M11.9984 2.40039C17.3004 2.40039 21.5984 6.69846 21.5984 12.0004C21.5984 17.3023 17.3004 21.6004 11.9984 21.6004C6.6965 21.6004 2.39844 17.3023 2.39844 12.0004C2.39844 6.69846 6.6965 2.40039 11.9984 2.40039ZM11.9984 3.60039C7.35925 3.60039 3.59844 7.3612 3.59844 12.0004C3.59844 16.6396 7.35925 20.4004 11.9984 20.4004C16.6376 20.4004 20.3984 16.6396 20.3984 12.0004C20.3984 7.3612 16.6376 3.60039 11.9984 3.60039Z" fill="black"/>
</svg>
