<svg xmlns="http://www.w3.org/2000/svg" width="20" height="20" viewBox="0 0 20 20" fill="none">
<g transform="translate(-80 -360.2197)">
  <path d="M88 362.22C92.4183 362.22 96 365.801 96 370.22C96 374.638 92.4183 378.22 88 378.22C83.5817 378.22 80 374.638 80 370.22C80 365.801 83.5817 362.22 88 362.22ZM88 363.22C84.134 363.22 81 366.354 81 370.22C81 374.086 84.134 377.22 88 377.22C91.866 377.22 95 374.086 95 370.22C95 366.354 91.866 363.22 88 363.22Z" fill="currentColor" />
  <circle cx="88" cy="374.762" r="1" fill="currentColor" />
  <path d="M88 364.448C88.8111 364.448 89.4686 365.265 89.4688 366.273C89.4688 366.477 89.4393 366.673 89.3896 366.856L88.7344 371.75C88.7344 372.254 88.4056 372.663 88 372.663C87.5944 372.663 87.2656 372.254 87.2656 371.75L86.6094 366.856C86.5597 366.673 86.5312 366.477 86.5312 366.273C86.5314 365.265 87.1889 364.448 88 364.448Z" fill="currentColor" />
</g>
</svg>