<svg width="24" height="24" viewBox="0 0 24 24" fill="none" xmlns="http://www.w3.org/2000/svg">
<path d="M11.9984 2.39844C17.3004 2.39844 21.5984 6.6965 21.5984 11.9984C21.5984 17.3004 17.3004 21.5984 11.9984 21.5984C6.6965 21.5984 2.39844 17.3004 2.39844 11.9984C2.39844 6.6965 6.6965 2.39844 11.9984 2.39844ZM11.9984 3.59844C7.35925 3.59844 3.59844 7.35925 3.59844 11.9984C3.59844 16.6376 7.35925 20.3984 11.9984 20.3984C16.6376 20.3984 20.3984 16.6376 20.3984 11.9984C20.3984 7.35925 16.6376 3.59844 11.9984 3.59844Z" fill="black"/>
<circle cx="12.0008" cy="17.45" r="1.2" fill="black"/>
<path d="M12.0008 5.07422C12.9741 5.07422 13.7631 6.05478 13.7633 7.26445C13.7633 7.50925 13.728 7.74425 13.6684 7.96406L12.882 13.8363C12.882 14.4413 12.4875 14.932 12.0008 14.932C11.5141 14.932 11.1195 14.4413 11.1195 13.8363L10.332 7.96406C10.2725 7.74433 10.2383 7.50914 10.2383 7.26445C10.2385 6.05478 11.0275 5.07422 12.0008 5.07422Z" fill="black"/>
</svg>
